<svg width="1293" height="437" viewBox="0 0 1293 437" fill="none" xmlns="http://www.w3.org/2000/svg">
<path opacity="0.83" d="M688.354 407.65C688.354 406.365 688.156 405.218 687.758 404.208C687.391 403.168 686.702 402.234 685.692 401.408C684.713 400.551 683.321 399.725 681.516 398.93C679.741 398.104 677.446 397.247 674.631 396.359C671.51 395.38 668.603 394.279 665.91 393.055C663.217 391.831 660.846 390.408 658.796 388.786C656.776 387.164 655.201 385.298 654.068 383.187C652.936 381.045 652.37 378.566 652.37 375.751C652.37 372.997 652.951 370.488 654.114 368.224C655.308 365.959 656.991 364.016 659.163 362.395C661.336 360.742 663.891 359.472 666.828 358.585C669.796 357.698 673.07 357.254 676.65 357.254C681.607 357.254 685.891 358.157 689.502 359.962C693.143 361.767 695.958 364.215 697.947 367.306C699.936 370.396 700.931 373.869 700.931 377.725H688.354C688.354 375.644 687.911 373.808 687.023 372.217C686.167 370.626 684.851 369.371 683.076 368.453C681.332 367.535 679.129 367.076 676.467 367.076C673.896 367.076 671.755 367.459 670.041 368.224C668.358 368.989 667.088 370.029 666.231 371.345C665.405 372.66 664.992 374.129 664.992 375.751C664.992 376.975 665.283 378.076 665.864 379.056C666.446 380.004 667.318 380.907 668.48 381.764C669.643 382.59 671.081 383.37 672.795 384.104C674.539 384.808 676.559 385.512 678.854 386.216C682.525 387.317 685.738 388.541 688.492 389.888C691.277 391.234 693.587 392.764 695.423 394.478C697.289 396.191 698.682 398.119 699.6 400.261C700.548 402.403 701.022 404.835 701.022 407.559C701.022 410.435 700.456 413.005 699.324 415.27C698.192 417.534 696.57 419.462 694.459 421.053C692.348 422.644 689.808 423.853 686.84 424.679C683.902 425.505 680.613 425.918 676.972 425.918C673.728 425.918 670.515 425.49 667.333 424.633C664.181 423.745 661.32 422.43 658.75 420.686C656.18 418.911 654.13 416.677 652.6 413.984C651.07 411.261 650.305 408.079 650.305 404.438H662.973C662.973 406.549 663.309 408.354 663.982 409.854C664.686 411.322 665.665 412.531 666.92 413.479C668.205 414.397 669.704 415.071 671.418 415.499C673.132 415.927 674.983 416.142 676.972 416.142C679.542 416.142 681.653 415.79 683.306 415.086C684.989 414.352 686.243 413.342 687.069 412.057C687.926 410.771 688.354 409.303 688.354 407.65ZM778.453 415.086V425H742.928V415.086H778.453ZM746.783 358.172V425H734.161V358.172H746.783ZM773.817 385.757V395.441H742.928V385.757H773.817ZM778.315 358.172V368.132H742.928V358.172H778.315ZM849.733 403.015H862.355C862.019 407.482 860.78 411.445 858.638 414.902C856.496 418.329 853.512 421.022 849.688 422.98C845.863 424.939 841.227 425.918 835.78 425.918C831.588 425.918 827.809 425.184 824.443 423.715C821.108 422.215 818.247 420.089 815.86 417.335C813.504 414.55 811.699 411.215 810.444 407.329C809.19 403.412 808.562 399.021 808.562 394.156V389.062C808.562 384.196 809.205 379.805 810.49 375.889C811.775 371.972 813.611 368.637 815.998 365.883C818.415 363.098 821.307 360.956 824.673 359.457C828.069 357.958 831.864 357.208 836.056 357.208C841.502 357.208 846.107 358.218 849.871 360.237C853.635 362.226 856.557 364.965 858.638 368.453C860.718 371.941 861.973 375.95 862.401 380.479H849.779C849.535 377.663 848.923 375.277 847.943 373.318C846.995 371.36 845.557 369.876 843.629 368.866C841.732 367.826 839.207 367.306 836.056 367.306C833.608 367.306 831.451 367.765 829.584 368.683C827.748 369.601 826.218 370.978 824.994 372.813C823.77 374.619 822.852 376.883 822.24 379.606C821.628 382.299 821.322 385.42 821.322 388.97V394.156C821.322 397.553 821.598 400.597 822.148 403.29C822.699 405.983 823.556 408.262 824.719 410.129C825.882 411.995 827.381 413.418 829.217 414.397C831.053 415.377 833.241 415.866 835.78 415.866C838.871 415.866 841.38 415.377 843.308 414.397C845.266 413.418 846.75 411.98 847.76 410.083C848.8 408.186 849.458 405.83 849.733 403.015ZM932.718 358.172H945.34V402.556C945.34 407.666 944.238 411.965 942.035 415.453C939.832 418.911 936.833 421.527 933.039 423.302C929.245 425.046 924.93 425.918 920.096 425.918C915.2 425.918 910.84 425.046 907.015 423.302C903.19 421.527 900.191 418.911 898.019 415.453C895.846 411.965 894.76 407.666 894.76 402.556V358.172H907.382V402.556C907.382 405.677 907.902 408.232 908.942 410.221C909.983 412.179 911.451 413.632 913.349 414.581C915.246 415.53 917.495 416.004 920.096 416.004C922.727 416.004 924.976 415.53 926.843 414.581C928.74 413.632 930.193 412.179 931.203 410.221C932.213 408.232 932.718 405.677 932.718 402.556V358.172ZM980.728 358.172H1005.01C1010.09 358.172 1014.45 358.937 1018.09 360.467C1021.73 361.997 1024.53 364.261 1026.49 367.26C1028.45 370.258 1029.43 373.946 1029.43 378.321C1029.43 381.779 1028.81 384.778 1027.59 387.317C1026.37 389.857 1024.64 391.984 1022.4 393.697C1020.2 395.411 1017.6 396.757 1014.6 397.736L1010.65 399.756H989.219L989.127 389.796H1005.15C1007.75 389.796 1009.9 389.337 1011.62 388.419C1013.33 387.501 1014.62 386.231 1015.47 384.609C1016.36 382.988 1016.8 381.136 1016.8 379.056C1016.8 376.822 1016.38 374.894 1015.52 373.272C1014.66 371.62 1013.36 370.35 1011.62 369.463C1009.87 368.576 1007.67 368.132 1005.01 368.132H993.35V425H980.728V358.172ZM1018.46 425L1002.99 395.074L1016.34 395.028L1032 424.357V425H1018.46ZM1077.34 358.172V425H1064.72V358.172H1077.34ZM1140.78 358.172V425H1128.2V358.172H1140.78ZM1161.52 358.172V368.132H1107.68V358.172H1161.52ZM1198.84 358.172L1213.52 389.337L1228.3 358.172H1242.17L1219.95 400.536V425H1207.14V400.536L1184.88 358.172H1198.84ZM1238.26 419.079C1238.26 417.243 1238.89 415.698 1240.15 414.443C1241.4 413.189 1243.1 412.562 1245.24 412.562C1247.38 412.562 1249.08 413.189 1250.33 414.443C1251.59 415.698 1252.22 417.243 1252.22 419.079C1252.22 420.884 1251.59 422.414 1250.33 423.669C1249.08 424.893 1247.38 425.505 1245.24 425.505C1243.1 425.505 1241.4 424.893 1240.15 423.669C1238.89 422.414 1238.26 420.884 1238.26 419.079Z" fill="white"/>
<path d="M541.268 336C537.505 326.04 533.964 316.301 530.644 306.784C527.324 297.045 523.893 287.196 520.352 277.236H416.104L395.188 336H361.656C370.509 311.653 378.809 289.188 386.556 268.604C394.303 247.799 401.828 228.1 409.132 209.508C416.657 190.916 424.072 173.209 431.376 156.388C438.68 139.345 446.316 122.524 454.284 105.924H483.832C491.8 122.524 499.436 139.345 506.74 156.388C514.044 173.209 521.348 190.916 528.652 209.508C536.177 228.1 543.813 247.799 551.56 268.604C559.307 289.188 567.607 311.653 576.46 336H541.268ZM511.056 250.676C503.973 231.42 496.891 212.828 489.808 194.9C482.947 176.751 475.753 159.376 468.228 142.776C460.481 159.376 453.067 176.751 445.984 194.9C439.123 212.828 432.261 231.42 425.4 250.676H511.056ZM773.191 105.924C764.78 130.271 756.701 152.847 748.955 173.652C741.429 194.236 734.015 213.824 726.711 232.416C719.407 251.008 712.103 268.825 704.799 285.868C697.716 302.689 690.412 319.4 682.887 336H652.675C645.149 319.4 637.735 302.689 630.431 285.868C623.348 268.825 616.044 251.008 608.519 232.416C601.215 213.824 593.689 194.236 585.943 173.652C578.196 152.847 570.228 130.271 562.039 105.924H597.563C609.515 140.895 621.245 174.537 632.755 206.852C644.264 239.167 656.105 269.489 668.279 297.82C680.452 269.711 692.293 239.499 703.803 207.184C715.312 174.648 726.932 140.895 738.663 105.924H773.191ZM790.338 220.796C790.338 201.097 793.215 183.723 798.97 168.672C804.946 153.621 812.914 141.116 822.874 131.156C833.055 120.975 844.786 113.339 858.066 108.248C871.567 103.157 885.843 100.612 900.894 100.612C915.723 100.612 929.667 103.157 942.726 108.248C956.006 113.339 967.626 120.975 977.586 131.156C987.546 141.116 995.403 153.621 1001.16 168.672C1007.13 183.723 1010.12 201.097 1010.12 220.796C1010.12 240.495 1007.13 257.869 1001.16 272.92C995.403 287.971 987.546 300.587 977.586 310.768C967.626 320.728 956.006 328.253 942.726 333.344C929.667 338.435 915.723 340.98 900.894 340.98C885.843 340.98 871.567 338.435 858.066 333.344C844.786 328.253 833.055 320.728 822.874 310.768C812.914 300.587 804.946 287.971 798.97 272.92C793.215 257.869 790.338 240.495 790.338 220.796ZM824.202 220.796C824.202 234.74 825.973 247.467 829.514 258.976C833.055 270.264 838.035 279.892 844.454 287.86C851.094 295.828 859.062 302.025 868.358 306.452C877.875 310.657 888.499 312.76 900.23 312.76C911.961 312.76 922.474 310.657 931.77 306.452C941.066 302.025 948.923 295.828 955.342 287.86C961.982 279.892 967.073 270.264 970.614 258.976C974.155 247.467 975.926 234.74 975.926 220.796C975.926 206.852 974.155 194.236 970.614 182.948C967.073 171.439 961.982 161.7 955.342 153.732C948.923 145.764 941.066 139.677 931.77 135.472C922.474 131.045 911.961 128.832 900.23 128.832C888.499 128.832 877.875 131.045 868.358 135.472C859.062 139.677 851.094 145.764 844.454 153.732C838.035 161.7 833.055 171.439 829.514 182.948C825.973 194.236 824.202 206.852 824.202 220.796ZM1228.35 105.924C1221.49 113.449 1213.74 121.86 1205.11 131.156C1196.48 140.231 1187.41 149.637 1177.89 159.376C1168.59 168.893 1159.3 178.3 1150 187.596C1140.7 196.892 1131.96 205.524 1123.77 213.492C1133.29 220.132 1143.36 228.321 1153.98 238.06C1164.61 247.799 1175.01 258.201 1185.19 269.268C1195.37 280.335 1204.89 291.623 1213.74 303.132C1222.82 314.641 1230.34 325.597 1236.32 336H1198.47C1191.83 325.597 1184.2 315.195 1175.56 304.792C1166.93 294.168 1157.75 284.097 1148.01 274.58C1138.49 264.841 1128.75 255.877 1118.79 247.688C1109.05 239.499 1099.54 232.527 1090.24 226.772V336H1058.04V105.924H1090.24V207.516C1097.99 200.212 1106.51 192.023 1115.8 182.948C1125.1 173.652 1134.29 164.356 1143.36 155.06C1152.44 145.764 1160.96 136.911 1168.92 128.5C1177.11 119.868 1183.98 112.343 1189.51 105.924H1228.35Z" fill="white"/>
<path d="M425.5 250.5H511L520.5 277.5H416L425.5 250.5Z" fill="black"/>
<rect x="197.955" y="151" width="129" height="53" transform="rotate(30.57 197.955 151)" fill="#00EB96"/>
<path d="M336 338.5L283 368.5V338.5L283 99.5V65L336 99.5L336 338.5Z" fill="#00EB96"/>
<path d="M0 97.5L53 66V97.5V336.5V368.5L0 336.5V97.5Z" fill="#00EB96"/>
<path d="M221 404.38L168 437V393.445L168 46.4585V0L221 33.5L221 404.38Z" fill="#00EB96"/>
<path d="M115 31L168 0V43.5548V390.542V437L115 403.034V31Z" fill="#00EB96"/>
<circle cx="309.5" cy="138.5" r="13.5" fill="white" stroke="black" stroke-width="8"/>
<path d="M302 154H318V321.415L302 330V154Z" fill="black"/>
<circle cx="26.5" cy="138.5" r="13.5" fill="white" stroke="black" stroke-width="8"/>
<path d="M19 154H35V329.5L19 319V154Z" fill="black"/>
</svg>
